<?xml version="1.0" standalone="no"?>
<!DOCTYPE svg PUBLIC "-//W3C//DTD SVG 20010904//EN"
 "http://www.w3.org/TR/2001/REC-SVG-20010904/DTD/svg10.dtd">
<svg version="1.0" xmlns="http://www.w3.org/2000/svg"
 width="1000.000000pt" height="1000.000000pt" viewBox="0 0 1000.000000 1000.000000"
 preserveAspectRatio="xMidYMid meet">
<metadata>
Created by potrace 1.11, written by Peter Selinger 2001-2013
</metadata>
<g transform="translate(0.000000,1000.000000) scale(0.100000,-0.100000)"
fill="#000000" stroke="none">
<path d="M5955 8449 c-11 -7 -46 -34 -77 -61 -53 -46 -60 -56 -106 -176 -51
-130 -58 -149 -66 -192 -3 -14 -19 -79 -36 -145 -16 -66 -32 -133 -35 -150 -3
-16 -12 -66 -21 -110 -8 -44 -17 -96 -20 -115 -3 -19 -8 -38 -9 -41 -2 -3 -7
-28 -11 -55 -3 -27 -8 -51 -9 -54 -2 -3 -6 -26 -10 -50 -4 -25 -24 -155 -45
-290 -21 -135 -53 -348 -71 -475 -17 -126 -33 -232 -35 -234 -2 -2 -11 4 -20
13 -29 30 -58 45 -122 65 -60 20 -63 20 -131 2 -37 -10 -78 -25 -90 -33 -118
-83 -233 -261 -331 -513 -17 -44 -35 -89 -40 -100 -27 -56 -166 -497 -232
-731 l-19 -70 -57 -2 c-344 -10 -633 -322 -1112 -1197 -51 -93 -106 -195 -123
-225 -17 -30 -47 -86 -67 -125 -21 -38 -52 -97 -70 -130 -18 -33 -43 -79 -56
-102 -487 -888 -861 -1322 -1314 -1527 -145 -66 -351 -127 -503 -150 -93 -14
-127 -57 -127 -160 0 -79 13 -110 57 -137 33 -20 39 -20 1345 -19 1254 1 1461
3 1608 15 482 40 732 289 944 940 57 174 143 501 170 645 2 14 14 67 25 118
12 51 24 109 27 129 6 40 7 42 33 178 11 55 22 114 25 130 39 235 51 295 56
295 4 0 35 -53 70 -117 35 -65 73 -136 85 -158 12 -22 39 -71 60 -110 321
-595 566 -980 786 -1238 80 -94 265 -276 344 -339 246 -196 497 -313 865 -402
213 -51 303 -62 635 -80 68 -4 867 -9 1118 -7 76 1 80 2 112 34 44 44 53 93
29 144 -36 73 -16 70 -619 77 -297 4 -569 8 -605 11 -234 14 -267 18 -338 41
-300 97 -484 471 -687 1394 -41 185 -151 788 -170 932 -2 15 -9 53 -14 85 -6
32 -13 81 -16 108 -3 28 -8 57 -10 65 -2 8 -7 38 -10 65 -4 28 -8 57 -10 65
-2 8 -7 40 -10 70 -3 30 -8 62 -10 70 -4 13 -23 141 -40 270 -3 19 -7 46 -10
60 -2 14 -7 48 -10 75 -3 28 -10 77 -15 110 -5 33 -12 78 -15 100 -2 21 -10
75 -16 120 -6 44 -12 92 -14 108 -9 68 -26 194 -30 217 -2 14 -6 48 -10 75 -3
28 -15 111 -25 185 -10 74 -22 158 -25 185 -7 57 -11 81 -20 145 -4 25 -8 56
-10 70 -2 14 -7 52 -11 85 -3 33 -8 62 -9 65 -2 3 -7 37 -10 75 -4 39 -8 72
-10 75 -2 3 -7 33 -10 65 -4 33 -9 63 -11 66 -1 3 -5 32 -9 65 -3 33 -7 70
-10 84 -3 13 -7 42 -10 65 -3 22 -8 51 -10 65 -3 14 -7 45 -10 70 -3 25 -7 56
-10 70 -6 32 -34 203 -40 244 -9 70 -28 184 -40 246 -3 14 -10 52 -16 85 -26
148 -60 311 -84 411 -14 60 -31 129 -37 154 -19 81 -109 301 -133 324 -65 66
-116 99 -158 103 -23 2 -51 -2 -62 -8z m73 -366 c32 -89 105 -386 126 -513 3
-19 9 -46 12 -60 17 -78 56 -307 69 -400 3 -25 8 -52 10 -60 3 -8 7 -32 9 -53
3 -20 12 -79 20 -130 9 -50 32 -204 51 -342 20 -137 37 -261 40 -275 2 -14 6
-47 10 -75 8 -67 14 -108 25 -185 5 -36 12 -81 14 -100 3 -19 10 -73 16 -120
6 -47 13 -96 15 -110 2 -14 6 -43 9 -65 21 -159 27 -204 30 -221 4 -22 18
-130 21 -159 3 -24 11 -87 30 -220 8 -55 17 -122 21 -150 3 -27 7 -57 9 -65 1
-8 6 -40 10 -70 9 -70 14 -109 20 -140 3 -14 7 -45 10 -70 2 -25 6 -54 9 -65
2 -11 7 -42 10 -70 4 -27 9 -61 11 -75 2 -14 13 -86 24 -160 30 -204 31 -208
47 -305 8 -49 17 -101 19 -115 28 -170 69 -410 80 -465 8 -38 17 -86 20 -105
3 -19 13 -71 21 -115 8 -44 18 -91 20 -105 5 -27 33 -149 66 -295 93 -404 208
-747 315 -937 17 -32 28 -58 24 -58 -15 0 -149 130 -199 193 -218 273 -443
782 -642 1447 -74 245 -214 740 -225 790 -7 33 -220 809 -276 1005 -76 264
-202 644 -266 798 -47 113 -49 122 -41 175 4 32 10 77 13 102 4 25 8 56 10 69
2 13 7 45 11 70 4 25 8 54 10 65 2 10 6 44 10 75 3 31 8 65 10 75 2 11 8 56
14 100 12 87 18 126 25 166 2 14 7 43 10 65 3 22 10 65 15 95 5 30 12 75 15
100 8 62 15 102 20 120 2 8 6 36 9 61 13 99 97 526 131 661 37 147 73 258 84
258 3 0 12 -17 19 -37z m-773 -1995 c26 -29 51 -62 57 -73 5 -11 16 -31 24
-45 14 -24 14 -103 -1 -190 -6 -37 -12 -82 -30 -215 -9 -66 -18 -131 -20 -145
-2 -14 -7 -50 -10 -80 -3 -30 -8 -62 -10 -70 -2 -8 -7 -42 -11 -75 -3 -33 -8
-69 -9 -80 -2 -11 -6 -42 -10 -70 -3 -27 -8 -61 -11 -75 -2 -14 -8 -61 -14
-105 -6 -44 -13 -91 -15 -105 -2 -14 -7 -45 -10 -70 -3 -25 -10 -72 -15 -105
-5 -33 -12 -82 -15 -110 -4 -27 -10 -65 -13 -83 l-7 -34 -84 114 c-95 127
-274 312 -344 353 -26 15 -47 32 -47 37 0 44 207 696 271 852 107 264 208 426
264 426 7 0 34 -24 60 -52z m323 -730 c31 -95 80 -259 108 -358 9 -30 20 -66
24 -80 8 -23 98 -349 149 -540 11 -41 47 -176 81 -300 34 -124 68 -248 75
-275 227 -843 468 -1510 665 -1845 36 -62 25 -56 -64 34 -96 98 -192 211 -280
329 -95 128 -226 324 -226 338 0 5 -4 9 -10 9 -5 0 -10 4 -10 8 0 4 -37 71
-83 147 -106 177 -272 477 -427 770 -29 55 -56 105 -60 110 -4 6 -23 39 -43
75 -19 36 -58 107 -87 157 -30 54 -49 100 -46 110 2 10 7 41 11 68 3 28 10 75
15 105 5 30 12 73 15 95 5 39 32 235 40 285 2 14 7 48 11 75 3 28 8 57 9 66 2
9 6 40 10 70 3 30 8 65 10 79 18 111 25 163 30 210 6 55 13 103 21 150 2 14 6
48 9 75 3 28 8 59 10 70 2 11 4 28 4 38 2 32 10 17 39 -75z m-1239 -710 c-9
-31 -67 -246 -109 -403 -10 -38 -42 -153 -70 -255 -29 -102 -55 -198 -60 -215
-4 -16 -24 -88 -44 -160 -353 -1234 -637 -1806 -1008 -2027 -111 -66 -252
-116 -373 -133 -22 -3 -49 -7 -60 -10 -21 -4 -104 -13 -190 -20 -27 -2 -189
-7 -360 -10 l-310 -6 81 44 c187 102 297 188 489 381 214 216 430 509 640 868
50 86 143 249 156 273 9 16 28 53 44 80 71 128 85 154 118 215 522 978 752
1299 1002 1396 55 21 65 18 54 -18z m342 -130 c104 -100 242 -285 362 -484 31
-52 36 -68 31 -100 -3 -22 -18 -115 -34 -209 -30 -180 -35 -206 -45 -270 -41
-258 -146 -756 -206 -980 -197 -736 -381 -997 -734 -1040 -33 -4 -69 -10 -80
-12 -11 -2 -182 -7 -380 -10 l-360 -5 45 32 c67 50 198 185 266 276 154 205
296 484 440 865 58 154 219 637 228 683 2 12 14 50 25 86 30 93 163 571 261
937 71 265 86 310 99 303 9 -4 46 -37 82 -72z"/>
</g>
</svg>
